<?xml version="1.0" standalone="no"?>
<!DOCTYPE svg PUBLIC "-//W3C//DTD SVG 20010904//EN"
 "http://www.w3.org/TR/2001/REC-SVG-20010904/DTD/svg10.dtd">
<svg version="1.0" xmlns="http://www.w3.org/2000/svg"
 width="1024.000000pt" height="1024.000000pt" viewBox="0 0 1024.000000 1024.000000"
 preserveAspectRatio="xMidYMid meet">

<g transform="translate(0.000000,1024.000000) scale(0.100000,-0.100000)"
fill="#000000" stroke="none">
<path d="M2800 8450 l0 -660 -400 0 -400 0 0 -825 0 -825 -375 0 -375 0 0
-840 0 -840 22 -13 c13 -8 97 -57 188 -109 366 -211 561 -325 675 -393 l120
-73 3 -96 3 -96 -512 0 -512 0 6 -122 c4 -66 7 -446 7 -843 l0 -722 73 -11
c39 -6 110 -16 157 -22 47 -6 96 -13 110 -15 14 -2 79 -11 145 -20 138 -18
291 -40 420 -61 50 -7 93 -14 98 -14 4 0 7 -106 7 -235 l0 -235 -499 0 -498 0
-44 -24 c-24 -14 -80 -39 -124 -56 -157 -62 -164 -60 385 -60 272 0 500 0 505
0 8 -1 -310 -100 -437 -137 -10 -3 -18 -9 -18 -14 0 -5 1509 -9 3565 -9 2186
0 3565 4 3565 9 0 5 -93 39 -207 76 -115 36 -212 68 -218 70 -5 2 210 4 480 4
356 1 486 4 478 12 -6 6 -57 31 -112 55 -56 24 -111 50 -124 59 -18 13 -77 15
-414 15 l-393 0 0 809 0 809 223 62 c122 34 260 72 307 85 47 14 124 34 173
46 l87 21 0 909 c0 719 -3 909 -12 911 -7 1 -74 2 -148 3 l-135 0 -3 553 -2
552 -646 0 c-423 0 -645 3 -642 10 2 5 182 189 401 408 l397 398 0 837 0 837
-608 0 c-335 0 -670 3 -745 7 l-137 6 0 234 0 233 -1930 0 -1930 0 0 -660z
m2570 -875 l0 -1455 -80 0 -80 0 0 1380 0 1380 -1040 0 -1040 0 -1 -422 c0
-233 0 -844 0 -1358 0 -514 -3 -1000 -7 -1080 l-7 -145 -77 124 c-43 69 -78
128 -78 132 0 4 -17 9 -37 11 l-38 3 -3 1443 -2 1442 1245 0 1245 0 0 -1455z
m1200 880 l0 -575 -555 0 -555 0 0 575 0 575 555 0 555 0 0 -575z m-3212 272
c12 -24 11 -31 -2 -53 -21 -32 -69 -33 -90 -2 -20 29 -20 47 1 70 26 28 74 20
91 -15z m179 7 c15 -24 15 -29 2 -53 -20 -36 -71 -41 -93 -9 -20 29 -20 47 1
70 24 27 69 23 90 -8z m177 10 c17 -16 21 -51 8 -70 -4 -6 -17 -16 -30 -23
-48 -25 -98 38 -68 84 19 29 66 34 90 9z m4346 -989 l0 -795 -697 2 -698 3 -3
793 -2 792 700 0 700 0 0 -795z m-2932 -437 l2 -1198 -960 0 -960 0 0 1200 0
1200 958 -2 957 -3 3 -1197z m-2338 -95 c0 -263 1 -613 3 -778 l2 -300 -352
-3 -353 -2 0 780 0 780 350 0 350 0 0 -477z m3630 -593 l0 -550 -160 0 -160 0
0 433 0 432 131 100 c72 55 141 108 153 117 11 10 24 17 29 18 4 0 7 -247 7
-550z m-412 -152 l-3 -393 -287 -3 -288 -2 0 182 1 183 71 55 c236 181 492
370 499 370 5 0 8 -167 7 -392z m-3090 -1190 l-3 -773 -790 0 -790 0 -3 773
-2 772 795 0 795 0 -2 -772z m5632 379 c0 -217 3 -712 7 -1100 l6 -707 -721 0
-722 0 0 1100 0 1100 715 0 715 0 0 -393z m-2542 -239 l2 -548 -295 0 -295 0
0 550 0 550 293 -2 292 -3 3 -547z m412 2 l0 -550 -160 0 -160 0 0 550 0 550
160 0 160 0 0 -550z m-1558 205 c71 -110 164 -260 208 -332 l80 -132 0 -145 0
-145 -127 -3 -128 -3 -81 -145 -80 -145 -861 -3 -860 -2 -5 622 c-3 343 -3
626 -1 631 2 4 392 6 866 5 l861 -3 128 -200z m3996 -1522 l2 -833 -355 0
-355 0 0 115 0 115 53 34 c51 33 252 157 375 230 l62 37 0 570 0 570 108 -3
107 -3 3 -832z m-2128 127 l0 -560 -900 0 -900 0 0 560 0 560 900 0 900 0 0
-560z m-2440 -355 l0 -205 -380 0 -380 0 0 205 0 205 380 0 380 0 0 -205z
m380 0 l0 -205 -140 0 -140 0 0 205 0 205 140 0 140 0 0 -205z m-1240 -15 l0
-190 -302 0 -303 0 90 55 c50 30 182 115 295 189 113 74 208 135 213 135 4 1
7 -84 7 -189z m-722 -1037 l-3 -758 -615 -3 c-338 -2 -648 0 -687 3 l-73 7 0
754 0 754 690 0 690 0 -2 -757z m4022 -393 l0 -1150 -130 0 -130 0 0 1040 0
1040 -1710 0 -1710 0 0 -1040 0 -1040 -130 0 -130 0 0 1150 0 1150 1970 0
1970 0 0 -1150z m660 835 l0 -315 -135 0 -136 0 3 83 3 82 63 3 c34 2 62 6 62
10 0 4 -6 27 -14 52 l-13 45 -54 5 c-32 3 -49 8 -42 13 10 6 9 17 -4 50 -28
73 -38 76 -63 21 -11 -27 -19 -57 -16 -66 3 -15 -3 -18 -35 -18 -38 0 -41 -2
-59 -46 -11 -25 -20 -50 -20 -55 0 -5 27 -9 60 -9 l60 0 0 -115 0 -115 168 -2
167 -3 0 -410 0 -410 -127 -3 -128 -3 -2 218 -3 218 -25 0 -25 0 -5 -215 -5
-215 -122 -3 -123 -3 0 761 0 760 285 0 285 0 0 -315z m670 -835 l0 -1150
-135 0 -135 0 0 453 c0 248 -3 523 -7 610 -6 154 -7 157 -28 157 -32 0 -35
-18 -35 -242 l0 -198 -130 0 -130 0 0 415 0 415 165 0 165 0 0 115 0 115 64 0
63 0 -16 56 -16 55 -42 -6 c-43 -6 -43 -6 -43 26 0 52 -21 109 -40 109 -22 0
-40 -41 -40 -90 l0 -40 -43 0 c-42 0 -43 -1 -60 -49 -9 -27 -17 -51 -17 -55 0
-3 27 -6 60 -6 l60 0 0 -85 0 -85 -130 0 -130 0 0 315 0 315 300 0 300 0 0
-1150z m-4007 380 l67 0 0 -720 0 -720 -165 0 -165 0 0 727 0 726 98 -6 c53
-4 127 -7 165 -7z m1147 -7 c3 -3 5 -325 5 -716 l0 -712 -487 -3 -488 -2 0
726 0 726 483 -8 c265 -3 484 -9 487 -11z m440 -713 l0 -720 -162 2 -163 3 -3
718 -2 717 165 0 165 0 0 -720z"/>
<path d="M5842 8637 l-163 -163 165 -158 166 -158 118 110 c64 61 140 134 167
162 l50 52 -165 158 c-91 88 -167 159 -170 160 -3 0 -79 -73 -168 -163z"/>
<path d="M7190 8265 l-124 -126 127 -127 127 -127 120 122 c66 68 120 126 120
130 0 5 -55 63 -123 131 l-123 122 -124 -125z"/>
<path d="M7571 7874 c-61 -62 -111 -117 -111 -122 0 -4 48 -55 108 -113 l107
-105 115 118 115 119 -112 109 -111 109 -111 -115z"/>
<path d="M6835 7870 l-110 -110 118 -118 118 -117 109 115 109 115 -112 113
c-61 61 -114 112 -117 112 -3 0 -55 -50 -115 -110z"/>
<path d="M7190 7525 l-123 -127 121 -121 122 -122 120 120 c66 66 120 124 120
130 0 6 -53 63 -118 128 l-118 118 -124 -126z"/>
<path d="M3340 8300 l0 -50 136 0 135 0 -3 48 -3 47 -132 3 -133 3 0 -51z"/>
<path d="M3350 8040 c0 -47 2 -50 25 -50 23 0 25 3 25 50 0 47 -2 50 -25 50
-23 0 -25 -3 -25 -50z"/>
<path d="M3490 8045 l0 -45 215 0 215 0 0 45 0 45 -215 0 -215 0 0 -45z"/>
<path d="M4000 8045 l0 -45 125 0 125 0 0 45 0 45 -125 0 -125 0 0 -45z"/>
<path d="M3350 7789 c0 -49 1 -50 27 -47 21 2 27 9 29 33 3 48 -5 65 -32 65
-22 0 -24 -4 -24 -51z"/>
<path d="M3490 7790 l0 -50 206 0 205 0 -3 48 -3 47 -202 3 -203 2 0 -50z"/>
<path d="M3350 7540 c0 -47 2 -50 25 -50 23 0 25 3 25 50 0 47 -2 50 -25 50
-23 0 -25 -3 -25 -50z"/>
<path d="M3490 7535 l0 -45 135 0 135 0 0 45 0 45 -135 0 -135 0 0 -45z"/>
<path d="M3347 7333 c-4 -3 -7 -26 -7 -50 0 -41 1 -43 30 -43 29 0 30 1 30 50
0 46 -2 50 -23 50 -13 0 -27 -3 -30 -7z"/>
<path d="M3497 7333 c-4 -3 -7 -26 -7 -50 l0 -43 265 0 265 0 0 50 0 50 -258
0 c-142 0 -262 -3 -265 -7z"/>
<path d="M4117 7333 c-4 -3 -7 -26 -7 -50 l0 -43 55 0 55 0 0 50 0 50 -48 0
c-27 0 -52 -3 -55 -7z"/>
<path d="M3350 7045 c0 -25 -1 -48 -2 -52 -2 -5 9 -9 25 -11 27 -3 27 -2 27
52 0 53 -1 56 -25 56 -23 0 -25 -4 -25 -45z"/>
<path d="M3490 7040 l0 -50 345 0 345 0 0 50 0 50 -345 0 -345 0 0 -50z"/>
<path d="M4277 7083 c-4 -3 -7 -26 -7 -50 l0 -43 145 0 145 0 0 50 0 50 -138
0 c-76 0 -142 -3 -145 -7z"/>
<path d="M3350 6780 c0 -57 1 -60 25 -60 24 0 25 3 25 60 0 57 -1 60 -25 60
-24 0 -25 -3 -25 -60z"/>
<path d="M3497 6834 c-4 -4 -7 -29 -7 -56 l0 -48 191 0 190 0 -3 53 -3 52
-181 3 c-99 1 -183 -1 -187 -4z"/>
<path d="M3350 6530 c0 -47 2 -50 25 -50 23 0 25 3 25 50 0 47 -2 50 -25 50
-23 0 -25 -3 -25 -50z"/>
<path d="M3490 6525 l0 -45 285 0 285 0 0 45 0 45 -285 0 -285 0 0 -45z"/>
<path d="M3347 6323 c-4 -3 -7 -24 -7 -45 0 -36 2 -38 30 -38 29 0 30 2 30 45
0 40 -2 45 -23 45 -13 0 -27 -3 -30 -7z"/>
<path d="M3490 6280 l0 -40 50 0 50 0 0 40 0 40 -50 0 -50 0 0 -40z"/>
<path d="M2430 7407 l0 -195 -42 -38 c-24 -21 -90 -82 -147 -136 l-104 -99
147 -140 146 -141 0 -204 0 -204 25 0 25 0 0 378 -1 377 142 136 c79 74 140
140 136 146 -4 5 -79 79 -167 163 l-160 152 0 -195z"/>
<path d="M1899 5871 c-99 -35 -166 -79 -234 -153 -84 -91 -155 -249 -155 -347
l0 -31 165 0 165 0 0 29 c0 53 16 81 48 81 29 0 29 0 24 -55 l-4 -55 181 0
182 0 -5 33 c-3 17 -11 61 -16 97 -16 94 -34 158 -87 303 l-47 127 -71 -1
c-50 0 -91 -8 -146 -28z"/>
<path d="M2200 5872 c0 -4 15 -46 34 -93 37 -90 71 -214 80 -289 3 -25 8 -69
12 -97 l7 -53 158 0 159 0 -4 23 c-21 102 -32 140 -56 192 -57 125 -159 230
-284 290 -72 34 -106 43 -106 27z"/>
<path d="M1510 5252 c0 -33 30 -133 56 -188 57 -121 170 -235 285 -289 29 -13
55 -22 57 -20 3 2 -2 21 -11 42 -31 79 -57 239 -57 357 l0 116 -165 0 c-152 0
-165 -1 -165 -18z"/>
<path d="M1904 5255 c-14 -35 15 -291 44 -387 43 -144 47 -148 136 -148 130 0
250 51 360 151 102 93 176 227 192 348 l7 51 -156 0 c-146 0 -155 -1 -160 -20
-3 -12 -14 -20 -26 -20 -11 0 -25 9 -31 20 -10 19 -21 20 -186 20 -146 0 -176
-2 -180 -15z"/>
<path d="M7328 5843 c-16 -4 -18 -18 -18 -104 l0 -99 105 0 105 0 0 105 0 105
-87 -1 c-49 -1 -96 -3 -105 -6z"/>
<path d="M7628 5843 c-16 -4 -18 -18 -18 -104 l0 -99 100 0 100 0 0 99 c0 94
-1 99 -22 105 -26 6 -134 6 -160 -1z"/>
<path d="M7900 5745 l0 -105 105 0 106 0 -3 103 -3 102 -102 3 -103 3 0 -106z"/>
<path d="M7310 5295 l0 -85 435 0 435 0 0 85 0 85 -435 0 -435 0 0 -85z"/>
<path d="M7310 5025 l0 -55 280 0 280 0 0 55 0 55 -280 0 -280 0 0 -55z"/>
<path d="M7960 5025 l0 -55 190 0 190 0 0 55 0 55 -190 0 -190 0 0 -55z"/>
<path d="M7317 4833 c-4 -3 -7 -30 -7 -60 l0 -53 150 0 150 0 0 54 0 53 -37 7
c-51 8 -248 8 -256 -1z"/>
<path d="M7700 4780 l0 -60 240 0 241 0 -3 57 -3 58 -237 3 -238 3 0 -61z"/>
<path d="M7310 4520 l0 -50 273 0 272 0 -3 50 -4 50 -269 0 -269 0 0 -50z"/>
<path d="M7317 4323 c-4 -3 -7 -26 -7 -50 l0 -43 80 0 80 0 0 50 0 50 -73 0
c-41 0 -77 -3 -80 -7z"/>
<path d="M3286 5538 c5 -7 35 -50 67 -95 l59 -83 404 0 403 0 61 90 c33 49 60
92 60 95 0 3 -239 5 -531 5 -421 0 -529 -3 -523 -12z"/>
<path d="M3480 5270 c0 -6 16 -35 36 -65 l37 -55 263 0 263 0 41 59 c22 33 40
62 40 65 0 4 -153 6 -340 6 -223 0 -340 -3 -340 -10z"/>
<path d="M3612 5072 c2 -4 48 -74 103 -154 76 -113 103 -144 111 -135 21 22
194 280 194 289 0 4 -93 8 -206 8 -113 0 -204 -3 -202 -8z"/>
<path d="M5880 4490 c-81 -15 -131 -62 -149 -142 -12 -53 0 -107 32 -144 25
-29 102 -74 169 -99 26 -9 54 -25 63 -35 24 -26 15 -63 -16 -74 -36 -12 -72
-1 -112 33 -28 25 -42 30 -101 33 l-68 3 6 -30 c21 -101 118 -175 231 -175
180 0 274 181 158 302 -15 16 -62 42 -106 58 -96 38 -115 49 -124 75 -15 44
10 75 60 75 22 0 40 -11 67 -40 35 -38 40 -40 94 -40 l58 0 -7 33 c-9 38 -31
85 -54 111 -36 41 -131 68 -201 56z"/>
<path d="M6353 4489 c-133 -27 -192 -187 -108 -288 14 -16 70 -51 129 -79 57
-28 107 -55 111 -62 4 -6 4 -22 1 -35 -12 -49 -100 -41 -150 14 -16 18 -31 21
-92 21 l-73 0 14 -40 c33 -95 106 -149 209 -157 138 -11 230 63 228 184 0 93
-38 132 -176 183 -98 37 -132 84 -88 123 35 32 103 13 128 -35 13 -26 19 -28
74 -28 58 0 60 1 60 25 0 51 -50 123 -105 153 -36 19 -119 30 -162 21z"/>
<path d="M5235 4467 c-63 -30 -129 -102 -162 -175 -50 -113 -17 -261 78 -347
59 -53 116 -77 191 -83 139 -10 240 45 302 165 19 38 20 44 3 38 -7 -3 -40 -2
-73 3 l-61 8 -37 -38 c-66 -67 -154 -64 -222 6 -117 122 -48 316 111 316 52 0
80 -14 125 -60 12 -12 32 -15 92 -12 l78 4 -25 47 c-25 51 -74 99 -128 128
-22 11 -62 18 -127 20 -84 4 -101 1 -145 -20z"/>
<path d="M7005 2741 c-11 -19 -9 -100 4 -125 8 -14 29 -32 48 -41 62 -30 116
-1 188 99 25 35 45 66 45 70 0 10 -278 7 -285 -3z"/>
<path d="M7579 2713 c32 -63 88 -120 135 -138 39 -15 46 -15 80 -1 44 18 58
50 54 120 l-3 51 -143 3 -143 3 20 -38z"/>
</g>
</svg>
